<?xml version="1.0" encoding="UTF-8" standalone="no"?>
<!DOCTYPE svg PUBLIC "-//W3C//DTD SVG 1.1//EN" "http://www.w3.org/Graphics/SVG/1.1/DTD/svg11.dtd">
<svg width="100.00" height="100.00" viewBox="0.00 0.00 100.00 100.00" xmlns="http://www.w3.org/2000/svg" xmlns:xlink="http://www.w3.org/1999/xlink">
<g stroke-linecap="round" id="Layer_2">
<path d="M9.04,26.39 Q49.05,26.39 89.07,26.39 Q94.07,26.39 94.07,31.39 Q94.07,60.23 94.07,89.07 Q94.07,94.07 89.07,94.07 Q49.05,94.07 9.04,94.07 Q4.04,94.07 4.04,89.07 Q4.04,60.23 4.04,31.39 Q4.04,26.39 9.04,26.39 Z" fill="none" stroke="rgb(255, 255, 255)" stroke-width="10.00" stroke-opacity="1.00" stroke-linejoin="round"/>
<path d="M39.12,14.90 L64.58,14.44" fill="none" stroke="rgb(255, 255, 255)" stroke-width="5.00" stroke-opacity="1.00" stroke-linejoin="round"/>
<path d="M39.27,14.75 Q36.01,19.71 27.63,23.28" fill="none" stroke="rgb(255, 255, 255)" stroke-width="3.00" stroke-opacity="1.00" stroke-linejoin="round"/>
<path d="M38.03,11.49 Q50.14,11.33 62.56,11.33" fill="none" stroke="rgb(255, 255, 255)" stroke-width="10.00" stroke-opacity="1.00" stroke-linejoin="round"/>
<path d="M36.63,12.42 Q36.17,24.06 28.10,25.30" fill="none" stroke="rgb(255, 255, 255)" stroke-width="10.00" stroke-opacity="1.00" stroke-linejoin="round"/>
<path d="M62.25,11.95 Q65.20,24.06 74.67,25.77" fill="none" stroke="rgb(255, 255, 255)" stroke-width="10.00" stroke-opacity="1.00" stroke-linejoin="round"/>
<path d="M39.27,18.01 Q61.16,18.01 61.63,20.96" fill="none" stroke="rgb(255, 255, 255)" stroke-width="10.00" stroke-opacity="1.00" stroke-linejoin="round"/>
<path d="M49.44,67.37 C47.96,67.36 44.68,66.01 43.60,64.97 C42.56,63.89 41.18,60.58 41.14,59.06 C41.15,57.55 42.47,54.21 43.49,53.11 C44.55,52.05 47.80,50.65 49.28,50.61 C50.77,50.62 54.05,51.97 55.13,53.01 C56.17,54.08 57.55,57.40 57.59,58.91 C57.58,60.42 56.26,63.76 55.24,64.86 C54.18,65.92 50.93,67.33 49.44,67.37 Z" fill="none" stroke="rgb(255, 255, 255)" stroke-width="10.00" stroke-opacity="1.00" stroke-linejoin="round"/>
<path d="M48.82,54.33 C50.32,54.36 52.44,56.80 52.47,58.52 C52.44,60.24 50.32,62.68 48.82,62.71 C47.32,62.68 45.20,60.24 45.17,58.52 C45.20,56.80 47.32,54.36 48.82,54.33 Z" fill="none" stroke="rgb(255, 255, 255)" stroke-width="10.00" stroke-opacity="1.00" stroke-linejoin="round"/>
<path d="M49.29,29.18 C52.62,29.21 60.47,31.50 63.37,33.29 C66.25,35.13 72.00,41.38 73.69,44.51 C75.33,47.67 77.44,56.21 77.46,59.84 C77.44,63.47 75.33,72.01 73.69,75.17 C72.00,78.30 66.25,84.56 63.37,86.39 C60.47,88.19 52.62,90.48 49.29,90.50 C45.95,90.48 38.10,88.19 35.20,86.39 C32.32,84.56 26.57,78.30 24.89,75.17 C23.24,72.01 21.13,63.47 21.11,59.84 C21.13,56.21 23.24,47.67 24.89,44.51 C26.57,41.38 32.32,35.13 35.20,33.29 C38.10,31.50 45.95,29.21 49.29,29.18 Z" fill="none" stroke="rgb(255, 255, 255)" stroke-width="10.00" stroke-opacity="1.00" stroke-linejoin="round"/>
<path d="M49.36,46.57 C50.79,46.59 54.17,47.54 55.42,48.27 C56.65,49.04 59.12,51.64 59.85,52.93 C60.55,54.24 61.45,57.80 61.47,59.30 C61.45,60.80 60.55,64.35 59.85,65.66 C59.12,66.95 56.65,69.55 55.42,70.32 C54.17,71.06 50.79,72.01 49.36,72.03 C47.93,72.01 44.56,71.06 43.31,70.32 C42.08,69.55 39.61,66.95 38.88,65.66 C38.18,64.35 37.27,60.80 37.26,59.30 C37.27,57.80 38.18,54.24 38.88,52.93 C39.61,51.64 42.08,49.04 43.31,48.27 C44.56,47.54 47.93,46.59 49.36,46.57 Z" fill="none" stroke="rgb(255, 255, 255)" stroke-width="10.00" stroke-opacity="1.00" stroke-linejoin="round"/>
<path d="M11.02,30.11 L11.64,91.59" fill="none" stroke="rgb(255, 255, 255)" stroke-width="10.00" stroke-opacity="1.00" stroke-linejoin="round"/>
<path d="M11.64,91.59 L11.64,91.59" fill="none" stroke="rgb(255, 255, 255)" stroke-width="10.00" stroke-opacity="1.00" stroke-linejoin="round"/>
<path d="M18.78,89.57 L18.32,29.96" fill="none" stroke="rgb(255, 255, 255)" stroke-width="10.00" stroke-opacity="1.00" stroke-linejoin="round"/>
<path d="M18.32,29.96 L18.32,29.96" fill="none" stroke="rgb(255, 255, 255)" stroke-width="10.00" stroke-opacity="1.00" stroke-linejoin="round"/>
<path d="M27.32,28.56 L25.92,39.43" fill="none" stroke="rgb(255, 255, 255)" stroke-width="10.00" stroke-opacity="1.00" stroke-linejoin="round"/>
<path d="M25.92,39.43 L25.92,39.43" fill="none" stroke="rgb(255, 255, 255)" stroke-width="10.00" stroke-opacity="1.00" stroke-linejoin="round"/>
<path d="M21.11,77.77 L32.13,92.21" fill="none" stroke="rgb(255, 255, 255)" stroke-width="10.00" stroke-opacity="1.00" stroke-linejoin="round"/>
<path d="M24.99,90.96 L24.99,90.96" fill="none" stroke="rgb(255, 255, 255)" stroke-width="10.00" stroke-opacity="1.00" stroke-linejoin="round"/>
<path d="M88.64,29.03 L90.81,90.96" fill="none" stroke="rgb(255, 255, 255)" stroke-width="10.00" stroke-opacity="1.00" stroke-linejoin="round"/>
<path d="M90.81,90.96 L90.81,90.96" fill="none" stroke="rgb(255, 255, 255)" stroke-width="10.00" stroke-opacity="1.00" stroke-linejoin="round"/>
<path d="M85.53,91.90 L83.51,30.89" fill="none" stroke="rgb(255, 255, 255)" stroke-width="10.00" stroke-opacity="1.00" stroke-linejoin="round"/>
<path d="M83.51,30.89 L83.51,30.89" fill="none" stroke="rgb(255, 255, 255)" stroke-width="10.00" stroke-opacity="1.00" stroke-linejoin="round"/>
<path d="M66.13,27.32 L82.27,48.90" fill="none" stroke="rgb(255, 255, 255)" stroke-width="10.00" stroke-opacity="1.00" stroke-linejoin="round"/>
<path d="M82.27,48.90 L82.27,47.97" fill="none" stroke="rgb(255, 255, 255)" stroke-width="10.00" stroke-opacity="1.00" stroke-linejoin="round"/>
<path d="M82.43,39.74 L77.30,28.10" fill="none" stroke="rgb(255, 255, 255)" stroke-width="10.00" stroke-opacity="1.00" stroke-linejoin="round"/>
<path d="M77.30,28.10 L77.62,29.80" fill="none" stroke="rgb(255, 255, 255)" stroke-width="10.00" stroke-opacity="1.00" stroke-linejoin="round"/>
<path d="M80.72,68.30 L83.05,91.28" fill="none" stroke="rgb(255, 255, 255)" stroke-width="10.00" stroke-opacity="1.00" stroke-linejoin="round"/>
<path d="M82.89,91.28 L82.89,91.28" fill="none" stroke="rgb(255, 255, 255)" stroke-width="10.00" stroke-opacity="1.00" stroke-linejoin="round"/>
<path d="M64.42,90.34 L79.48,79.17" fill="none" stroke="rgb(255, 255, 255)" stroke-width="10.00" stroke-opacity="1.00" stroke-linejoin="round"/>
<path d="M79.79,79.17 L79.79,79.17" fill="none" stroke="rgb(255, 255, 255)" stroke-width="10.00" stroke-opacity="1.00" stroke-linejoin="round"/>
<path d="M81.19,89.10 L70.47,92.52" fill="none" stroke="rgb(255, 255, 255)" stroke-width="10.00" stroke-opacity="1.00" stroke-linejoin="round"/>
<path d="M70.47,92.52 L70.47,92.52" fill="none" stroke="rgb(255, 255, 255)" stroke-width="10.00" stroke-opacity="1.00" stroke-linejoin="round"/>
<path d="M31.05,6.36 L70.63,5.90" fill="none" stroke="rgb(255, 255, 255)" stroke-width="10.00" stroke-opacity="1.00" stroke-linejoin="round"/>
<path d="M70.63,5.90 L70.63,5.90" fill="none" stroke="rgb(255, 255, 255)" stroke-width="10.00" stroke-opacity="1.00" stroke-linejoin="round"/>
<path d="M27.49,35.18 L67.11,79.40" fill="none" stroke="rgb(255, 255, 255)" stroke-width="10.00" stroke-opacity="1.00" stroke-linejoin="round"/>
<path d="M66.76,77.69 L66.76,77.69" fill="none" stroke="rgb(255, 255, 255)" stroke-width="10.00" stroke-opacity="1.00" stroke-linejoin="round"/>
<path d="M49.43,35.35 C53.17,35.38 60.62,38.27 63.15,40.45 C65.59,42.62 69.18,47.55 70.28,50.51 C71.36,53.55 72.23,59.93 71.82,63.10 C71.36,66.32 69.18,72.32 67.36,74.84 C65.59,77.24 60.62,81.60 57.18,82.97 C55.37,83.65 51.19,84.51 49.43,84.52 C45.70,84.49 38.24,81.60 35.72,79.42 C33.28,77.24 29.69,72.32 28.59,69.36 C27.51,66.32 26.63,59.93 27.05,56.77 C27.51,53.55 29.69,47.55 31.50,45.03 C33.28,42.62 38.24,38.27 41.69,36.90 C43.49,36.22 47.67,35.36 49.43,35.35 Z" fill="none" stroke="rgb(255, 255, 255)" stroke-width="10.00" stroke-opacity="1.00" stroke-linejoin="round"/>
<path d="M52.34,45.42 C54.14,45.44 58.40,46.54 59.98,47.39 C61.53,48.27 64.65,51.27 65.57,52.76 C66.45,54.27 67.60,58.37 67.62,60.11 C67.60,61.84 66.45,65.94 65.57,67.45 C64.65,68.94 61.53,71.94 59.98,72.82 C58.40,73.67 54.14,74.77 52.34,74.79 C50.53,74.77 46.27,73.67 44.69,72.82 C43.14,71.94 40.02,68.94 39.10,67.45 C38.22,65.94 37.08,61.84 37.05,60.11 C37.08,58.37 38.22,54.27 39.10,52.76 C40.02,51.27 43.14,48.27 44.69,47.39 C46.27,46.54 50.53,45.44 52.34,45.42 Z" fill="none" stroke="rgb(255, 255, 255)" stroke-width="10.00" stroke-opacity="1.00" stroke-linejoin="round"/>
<path d="M45.93,38.25 C49.43,38.28 57.01,40.78 59.92,43.11 C63.09,45.73 66.58,51.45 67.40,55.36 C67.77,57.30 67.77,60.52 67.40,62.46 C66.58,66.37 63.09,72.09 59.92,74.71 C57.01,77.04 49.43,79.54 45.93,79.57 C42.44,79.54 34.86,77.04 31.94,74.71 C28.78,72.09 25.28,66.37 24.46,62.46 C24.09,60.52 24.09,57.30 24.46,55.36 C25.28,51.45 28.78,45.73 31.94,43.11 C34.86,40.78 42.44,38.28 45.93,38.25 Z" fill="none" stroke="rgb(255, 255, 255)" stroke-width="10.00" stroke-opacity="1.00" stroke-linejoin="round"/>
<path d="M42.35,44.57 C43.65,44.60 46.16,47.02 47.18,48.99 C48.28,51.26 49.39,59.68 48.92,63.51 C48.69,65.17 47.73,69.23 47.18,70.36 C46.16,72.34 43.65,74.76 42.35,74.79 C41.04,74.76 38.54,72.34 37.52,70.36 C36.41,68.10 35.30,59.68 35.78,55.84 C36.01,54.19 36.96,50.13 37.52,48.99 C38.54,47.02 41.04,44.60 42.35,44.57 Z" fill="none" stroke="rgb(255, 255, 255)" stroke-width="10.00" stroke-opacity="1.00" stroke-linejoin="round"/>
<path d="M50.54,32.61 C53.45,32.63 60.31,34.60 62.84,36.15 C65.35,37.73 70.37,43.11 71.84,45.80 C73.28,48.52 75.11,55.87 75.13,59.00 C75.11,62.12 73.28,69.47 71.84,72.19 C70.37,74.88 65.35,80.26 62.84,81.84 C60.31,83.39 53.45,85.36 50.54,85.38 C47.63,85.36 40.78,83.39 38.25,81.84 C35.74,80.26 30.72,74.88 29.25,72.19 C27.81,69.47 25.97,62.12 25.95,59.00 C25.97,55.87 27.81,48.52 29.25,45.80 C30.72,43.11 35.74,37.73 38.25,36.15 C40.78,34.60 47.63,32.63 50.54,32.61 Z" fill="none" stroke="rgb(255, 255, 255)" stroke-width="10.00" stroke-opacity="1.00" stroke-linejoin="round"/>
<path d="M37.57,10.93 L62.84,11.10" fill="none" stroke="rgb(255, 255, 255)" stroke-width="10.00" stroke-opacity="1.00" stroke-linejoin="round"/>
<path d="M10.92,10.24 Q13.36,10.24 15.80,10.24 Q20.80,10.24 20.80,13.44 Q20.80,13.44 20.80,13.44 Q20.80,16.64 15.80,16.64 Q13.36,16.64 10.92,16.64 Q5.92,16.64 5.92,13.44 Q5.92,13.44 5.92,13.44 Q5.92,10.24 10.92,10.24 Z" fill="none" stroke="rgb(255, 255, 255)" stroke-width="10.00" stroke-opacity="1.00" stroke-linejoin="round"/>
<path d="M10.92,10.56 Q13.76,10.56 16.60,10.56 Q21.60,10.56 21.60,12.56 Q21.60,12.56 21.60,12.56 Q21.60,14.56 16.60,14.56 Q13.76,14.56 10.92,14.56 Q5.92,14.56 5.92,12.56 Q5.92,12.56 5.92,12.56 Q5.92,10.56 10.92,10.56 Z" fill="none" stroke="rgb(255, 255, 255)" stroke-width="10.00" stroke-opacity="1.00" stroke-linejoin="round"/>
<path d="M2.40,7.04 L2.08,18.88" fill="none" stroke="rgb(255, 255, 255)" stroke-width="10.00" stroke-opacity="1.00" stroke-linejoin="round"/>
<path d="M25.12,5.28 L25.92,17.12" fill="none" stroke="rgb(255, 255, 255)" stroke-width="10.00" stroke-opacity="1.00" stroke-linejoin="round"/>
<path d="M4.16,5.60 L23.68,5.28" fill="none" stroke="rgb(255, 255, 255)" stroke-width="10.00" stroke-opacity="1.00" stroke-linejoin="round"/>
<path d="M4.16,8.96 L6.72,5.76" fill="none" stroke="rgb(255, 255, 255)" stroke-width="10.00" stroke-opacity="1.00" stroke-linejoin="round"/>
<path d="M21.92,8.00 L22.56,8.64" fill="none" stroke="rgb(255, 255, 255)" stroke-width="10.00" stroke-opacity="1.00" stroke-linejoin="round"/>
<path d="M31.95,5.00 Q42.70,0.45 75.55,4.84" fill="none" stroke="rgb(255, 255, 255)" stroke-width="10.00" stroke-opacity="1.00" stroke-linejoin="round"/>
</g>
</svg>
