<?xml version="1.0" encoding="UTF-8" standalone="no"?>
<!DOCTYPE svg PUBLIC "-//W3C//DTD SVG 1.1//EN" "http://www.w3.org/Graphics/SVG/1.1/DTD/svg11.dtd">
<svg width="100.00" height="100.00" viewBox="0.00 0.00 100.00 100.00" xmlns="http://www.w3.org/2000/svg" xmlns:xlink="http://www.w3.org/1999/xlink">
<g stroke-linecap="round" id="Layer_5">
<path d="M49.29,24.22 C52.48,24.23 59.90,25.83 63.29,27.22 C66.56,28.61 72.34,32.91 74.78,35.53 C77.45,38.45 80.65,43.92 81.88,47.65 C82.96,51.05 83.84,58.13 83.42,61.63 C82.96,65.22 80.65,72.35 79.06,75.09 C77.45,77.82 72.34,83.36 69.42,85.55 C66.56,87.65 59.90,90.44 56.38,91.22 C52.48,92.03 46.09,92.03 42.19,91.22 C38.67,90.44 32.01,87.65 29.15,85.55 C26.23,83.36 21.12,77.82 19.51,75.09 C17.92,72.35 15.62,65.22 15.15,61.63 C14.73,58.13 15.62,51.05 16.69,47.65 C17.92,43.92 21.12,38.45 23.79,35.53 C26.23,32.91 32.01,28.61 35.28,27.22 C38.67,25.83 46.09,24.23 49.29,24.22 Z" fill="none" stroke="rgb(36, 0, 83)" stroke-width="3.00" stroke-opacity="1.00" stroke-linejoin="round"/>
<path d="M30.43,15.99 L67.68,15.21" fill="none" stroke="rgb(36, 0, 83)" stroke-width="3.00" stroke-opacity="1.00" stroke-linejoin="round"/>
<path d="M47.03,34.00 L47.81,60.85" fill="none" stroke="rgb(36, 0, 83)" stroke-width="3.00" stroke-opacity="1.00" stroke-linejoin="round"/>
<path d="M76.84,36.94 L86.00,29.96" fill="none" stroke="rgb(36, 0, 83)" stroke-width="3.00" stroke-opacity="1.00" stroke-linejoin="round"/>
<path d="M30.28,15.14 L68.13,14.38" fill="none" stroke="rgb(255, 255, 255)" stroke-width="10.00" stroke-opacity="1.00" stroke-linejoin="round"/>
<path d="M68.13,14.38 L68.13,14.38" fill="none" stroke="rgb(255, 255, 255)" stroke-width="10.00" stroke-opacity="1.00" stroke-linejoin="round"/>
<path d="M86.15,29.98 L79.03,35.28" fill="none" stroke="rgb(255, 255, 255)" stroke-width="10.00" stroke-opacity="1.00" stroke-linejoin="round"/>
<path d="M79.03,35.28 L79.03,35.28" fill="none" stroke="rgb(255, 255, 255)" stroke-width="10.00" stroke-opacity="1.00" stroke-linejoin="round"/>
<path d="M47.69,34.82 L47.84,59.35" fill="none" stroke="rgb(255, 255, 255)" stroke-width="10.00" stroke-opacity="1.00" stroke-linejoin="round"/>
<path d="M47.84,59.35 L47.84,59.35" fill="none" stroke="rgb(255, 255, 255)" stroke-width="10.00" stroke-opacity="1.00" stroke-linejoin="round"/>
<path d="M48.45,26.04 C51.58,26.06 58.83,27.57 62.14,28.89 C65.34,30.21 70.99,34.29 73.37,36.78 C75.98,39.54 79.11,44.73 80.31,48.27 C81.36,51.50 82.23,58.21 81.82,61.53 C81.36,64.93 79.11,71.70 77.56,74.30 C75.98,76.88 70.99,82.14 68.13,84.22 C65.34,86.22 58.83,88.86 55.38,89.60 C51.58,90.37 45.32,90.37 41.52,89.60 C38.07,88.86 31.56,86.22 28.76,84.22 C25.91,82.14 20.92,76.88 19.34,74.30 C17.79,71.70 15.53,64.93 15.08,61.53 C14.67,58.21 15.53,51.50 16.59,48.27 C17.79,44.73 20.92,39.54 23.52,36.78 C25.91,34.29 31.56,30.21 34.76,28.89 C38.07,27.57 45.32,26.06 48.45,26.04 Z" fill="none" stroke="rgb(255, 255, 255)" stroke-width="10.00" stroke-opacity="1.00" stroke-linejoin="round"/>
</g>
</svg>
